#N canvas 685 33 954 469 12;
#X obj 12 43 vradio 15 1 0 3 bank-select empty empty 0 -6 0 8 -262144
-1 -1 0;
#N canvas 97 80 706 798 wiiupdown 0;
#X obj 384 193 loadbang;
#X msg 384 287 0;
#X obj 325 335 pack f f;
#X obj 216 433 - 1;
#X obj 358 428 + 1;
#X obj 216 470 sel -1;
#X msg 358 495 0;
#X text 478 609 send above in order to avoid ugly cables :);
#X obj 205 115 r upWii;
#X obj 325 117 r downWii;
#X text 27 346 comment;
#X obj 421 481 outlet newVal;
#X obj 421 286 r \$0-newVal;
#X obj 358 610 s \$0-newVal;
#X obj 358 465 sel 3;
#X msg 219 497 2;
#X msg 196 237 2;
#X msg 321 237 3;
#X obj 326 371 route 2 3;
#X connect 0 0 1 0;
#X connect 1 0 2 1;
#X connect 1 0 11 0;
#X connect 2 0 18 0;
#X connect 3 0 5 0;
#X connect 4 0 14 0;
#X connect 5 0 15 0;
#X connect 5 1 13 0;
#X connect 6 0 13 0;
#X connect 8 0 16 0;
#X connect 9 0 17 0;
#X connect 12 0 2 1;
#X connect 12 0 11 0;
#X connect 14 0 6 0;
#X connect 14 1 13 0;
#X connect 15 0 13 0;
#X connect 16 0 2 0;
#X connect 17 0 2 0;
#X connect 18 0 3 0;
#X connect 18 1 4 0;
#X restore 12 10 pd wiiupdown;
#X obj 19 367 hradio 15 1 0 9 empty empty empty 0 -6 0 8 -262144 -1
-1 8;
#X obj 206 366 hradio 15 1 0 9 empty empty empty 0 -6 0 8 -262144 -1
-1 8;
#X obj 397 365 hradio 15 1 0 9 empty empty empty 0 -6 0 8 -262144 -1
-1 8;
#X obj 79 77 bng 15 250 50 0 downWii empty empty 0 -6 0 8 -262144 -1
-1;
#X obj 63 62 bng 15 250 50 0 leftWii empty empty 0 -6 0 8 -262144 -1
-1;
#X obj 94 62 bng 15 250 50 0 rightWii empty empty 0 -6 0 8 -262144
-1 -1;
#X obj 79 47 bng 15 250 50 0 upWii empty empty 0 -6 0 8 -262144 -1
-1;
#X text 121 51 Alternatively these buttons work too...;
#X obj 228 156 r bank-select;
#X obj 169 183 pack f f;
#X obj 169 263 route 0 1 2;
#N canvas 54 28 694 786 wiiButtonReceive 0;
#X obj 245 342 outlet newValue;
#X obj 205 115 r leftWii;
#X obj 325 117 r rightWii;
#X msg 205 237 0;
#X msg 325 236 1;
#X connect 1 0 3 0;
#X connect 2 0 4 0;
#X connect 3 0 0 0;
#X connect 4 0 0 0;
#X restore 169 129 pd wiiButtonReceive;
#N canvas 753 174 694 786 ButtonState0 0;
#X obj 421 481 outlet newValue;
#X obj 384 193 loadbang;
#X msg 384 287 0;
#X obj 325 335 pack f f;
#X msg 205 237 0;
#X msg 325 236 1;
#X obj 325 371 route 0 1;
#X obj 216 433 - 1;
#X obj 358 428 + 1;
#X obj 216 470 sel -1;
#X msg 358 495 0;
#X text 27 346 use the route to decide wether to add or substract;
#X obj 358 465 sel 9;
#X msg 216 496 8;
#X obj 242 75 inlet;
#X obj 242 103 sel 0 1;
#X obj 421 286 r \$0-newValue0;
#X obj 358 610 s \$0-newValue0;
#X connect 1 0 2 0;
#X connect 2 0 3 1;
#X connect 2 0 0 0;
#X connect 3 0 6 0;
#X connect 4 0 3 0;
#X connect 5 0 3 0;
#X connect 6 0 7 0;
#X connect 6 1 8 0;
#X connect 7 0 9 0;
#X connect 8 0 12 0;
#X connect 9 0 13 0;
#X connect 9 1 17 0;
#X connect 10 0 17 0;
#X connect 12 0 10 0;
#X connect 12 1 17 0;
#X connect 13 0 17 0;
#X connect 14 0 15 0;
#X connect 15 0 4 0;
#X connect 15 1 5 0;
#X connect 16 0 3 1;
#X connect 16 0 0 0;
#X restore 19 333 pd ButtonState0;
#N canvas 54 28 686 778 ButtonState1 0;
#X obj 421 481 outlet newValue;
#X obj 384 193 loadbang;
#X msg 384 287 0;
#X obj 325 335 pack f f;
#X msg 205 237 0;
#X msg 325 236 1;
#X obj 325 371 route 0 1;
#X obj 216 433 - 1;
#X obj 358 428 + 1;
#X obj 216 470 sel -1;
#X msg 358 495 0;
#X text 27 346 use the route to decide wether to add or substract;
#X text 481 582 send above in order to avoid ugly cables :);
#X obj 358 465 sel 9;
#X msg 216 496 8;
#X obj 242 75 inlet;
#X obj 242 103 sel 0 1;
#X obj 427 286 r \$0-newValue1;
#X obj 358 610 s \$0-newValue1;
#X connect 1 0 2 0;
#X connect 2 0 3 1;
#X connect 2 0 0 0;
#X connect 3 0 6 0;
#X connect 4 0 3 0;
#X connect 5 0 3 0;
#X connect 6 0 7 0;
#X connect 6 1 8 0;
#X connect 7 0 9 0;
#X connect 8 0 13 0;
#X connect 9 0 14 0;
#X connect 9 1 18 0;
#X connect 10 0 18 0;
#X connect 13 0 10 0;
#X connect 13 1 18 0;
#X connect 14 0 18 0;
#X connect 15 0 16 0;
#X connect 16 0 4 0;
#X connect 16 1 5 0;
#X connect 17 0 3 1;
#X connect 17 0 0 0;
#X restore 206 330 pd ButtonState1;
#N canvas 54 28 690 782 ButtonState2 0;
#X obj 421 481 outlet newValue;
#X obj 384 193 loadbang;
#X msg 384 287 0;
#X obj 325 335 pack f f;
#X msg 205 237 0;
#X msg 325 236 1;
#X obj 325 371 route 0 1;
#X obj 216 433 - 1;
#X obj 358 428 + 1;
#X obj 216 470 sel -1;
#X msg 358 495 0;
#X text 27 346 use the route to decide wether to add or substract;
#X text 480 580 send above in order to avoid ugly cables :);
#X obj 358 465 sel 9;
#X msg 216 496 8;
#X obj 242 75 inlet;
#X obj 242 103 sel 0 1;
#X obj 421 285 r \$0-newValue2;
#X obj 358 610 s \$0-newValue2;
#X connect 1 0 2 0;
#X connect 2 0 3 1;
#X connect 2 0 0 0;
#X connect 3 0 6 0;
#X connect 4 0 3 0;
#X connect 5 0 3 0;
#X connect 6 0 7 0;
#X connect 6 1 8 0;
#X connect 7 0 9 0;
#X connect 8 0 13 0;
#X connect 9 0 14 0;
#X connect 9 1 18 0;
#X connect 10 0 18 0;
#X connect 13 0 10 0;
#X connect 13 1 18 0;
#X connect 14 0 18 0;
#X connect 15 0 16 0;
#X connect 16 0 4 0;
#X connect 16 1 5 0;
#X connect 17 0 3 1;
#X connect 17 0 0 0;
#X restore 397 331 pd ButtonState2;
#X msg 169 221 \$2 \$1;
#N canvas 215 95 1094 709 beats 0;
#X msg 20 167 symbol w1;
#X msg 102 167 symbol w2;
#X obj 728 244 hsl 128 15 0.5 1 0 0 empty empty empty -2 -6 0 8 -262144
-1 -1 0 1;
#X obj 627 311 pack s f;
#X obj 726 264 t b f;
#X msg 183 167 symbol w3;
#X msg 265 168 symbol w4;
#X msg 344 168 symbol w5;
#X msg 425 168 symbol w6;
#X msg 507 168 symbol w7;
#X msg 589 168 symbol w8;
#X msg 670 168 symbol w9;
#X obj 373 67 route 0 1 2 3 4 5 6 7;
#X text 731 219 This adjusts the sample rate;
#X msg 726 191 1;
#N canvas 728 207 889 679 sample 0;
#X obj 105 542 hip~ 5;
#X floatatom 107 60 4 0 100 0 - - -;
#X obj 106 489 *~;
#X floatatom 106 136 0 0 200 0 - - -;
#X obj 106 391 +~;
#X obj 105 343 samphold~;
#X obj 106 367 *~;
#X obj 271 398 r~ phase;
#X obj 456 223 s~ phase;
#X obj 193 344 r~ phase;
#X obj 141 368 r~ phase;
#X obj 107 103 s chunk-size;
#X floatatom 456 55 0 0 0 0 - - -;
#X text 223 95 chunk size;
#X text 220 109 in seconds;
#X obj 468 92 r chunk-size;
#X obj 468 117 t b f;
#X obj 271 422 -~ 0.5;
#X obj 271 446 *~ 0.5;
#X obj 271 469 cos~;
#X obj 456 197 phasor~;
#X obj 106 276 s~ read-pt;
#X obj 144 391 r~ read-pt;
#X obj 543 216 +~ 0.5;
#X obj 544 242 wrap~;
#X obj 544 267 s~ phase2;
#X obj 105 518 +~;
#X text 490 56 <-- transposition \, halftones/10;
#X obj 107 80 * 0.001;
#X obj 106 228 phasor~;
#X obj 106 415 *~ 44100;
#X obj 105 318 r chunk-size;
#X obj 105 441 +~ 1;
#X floatatom 464 174 5 0 0 0 - - -;
#X obj 114 182 s precession;
#X obj 581 116 t b f;
#X obj 581 91 r precession;
#X obj 106 159 * 0.01;
#X obj 357 498 *~;
#X obj 357 400 +~;
#X obj 356 352 samphold~;
#X obj 357 376 *~;
#X obj 522 431 -~ 0.5;
#X obj 522 455 *~ 0.5;
#X obj 522 478 cos~;
#X obj 395 400 r~ read-pt;
#X obj 357 424 *~ 44100;
#X obj 356 327 r chunk-size;
#X obj 356 450 +~ 1;
#X obj 444 353 r~ phase2;
#X obj 392 377 r~ phase2;
#X obj 522 407 r~ phase2;
#X text 136 136 <-- precession \, percent;
#X obj 107 16 loadbang;
#X text 257 16 TIME COMPRESSION/EXPANSION BY LOOPED SAMPLING;
#X msg 107 38 25;
#X floatatom 238 205 4 0 0 0 - - -;
#X obj 238 225 * 0.001;
#X msg 238 183 900;
#X text 147 60 <-- chunk size (msec);
#X obj 456 149 expr (pow(2 \, $f1/120)-$f3)/$f2;
#X obj 238 250 t b f;
#X obj 238 159 loadbang;
#X text 281 201 <-- loop length;
#X text 322 216 (msec);
#X obj 106 252 *~;
#X obj 106 204 /;
#X obj 106 465 tabread4~;
#X obj 357 474 tabread4~;
#X obj 641 20 r trans;
#X obj 646 341 r chunk;
#X obj 11 47 r percent;
#X obj 284 322 r length;
#X obj 4 129 r phasebloop;
#X obj 21 364 r bloop;
#X obj 172 628 dac~;
#X connect 0 0 75 0;
#X connect 0 0 75 1;
#X connect 1 0 28 0;
#X connect 2 0 26 0;
#X connect 3 0 37 0;
#X connect 4 0 30 0;
#X connect 5 0 6 0;
#X connect 6 0 4 0;
#X connect 7 0 17 0;
#X connect 9 0 5 1;
#X connect 10 0 6 1;
#X connect 12 0 60 0;
#X connect 15 0 16 0;
#X connect 16 0 60 0;
#X connect 16 1 60 1;
#X connect 17 0 18 0;
#X connect 18 0 19 0;
#X connect 19 0 2 1;
#X connect 20 0 8 0;
#X connect 20 0 23 0;
#X connect 22 0 4 1;
#X connect 23 0 24 0;
#X connect 24 0 25 0;
#X connect 26 0 0 0;
#X connect 28 0 11 0;
#X connect 29 0 65 0;
#X connect 30 0 32 0;
#X connect 31 0 5 0;
#X connect 32 0 67 0;
#X connect 35 0 60 0;
#X connect 35 1 60 2;
#X connect 36 0 35 0;
#X connect 37 0 34 0;
#X connect 37 0 66 0;
#X connect 38 0 26 1;
#X connect 39 0 46 0;
#X connect 40 0 41 0;
#X connect 41 0 39 0;
#X connect 42 0 43 0;
#X connect 43 0 44 0;
#X connect 44 0 38 1;
#X connect 45 0 39 1;
#X connect 46 0 48 0;
#X connect 47 0 40 0;
#X connect 48 0 68 0;
#X connect 49 0 40 1;
#X connect 50 0 41 1;
#X connect 51 0 42 0;
#X connect 53 0 55 0;
#X connect 55 0 1 0;
#X connect 56 0 57 0;
#X connect 57 0 61 0;
#X connect 57 0 65 1;
#X connect 58 0 56 0;
#X connect 60 0 20 0;
#X connect 60 0 33 0;
#X connect 61 0 66 0;
#X connect 61 1 66 1;
#X connect 62 0 58 0;
#X connect 65 0 21 0;
#X connect 66 0 29 0;
#X connect 67 0 2 0;
#X connect 68 0 38 0;
#X connect 69 0 12 0;
#X connect 70 0 1 0;
#X connect 71 0 3 0;
#X connect 72 0 56 0;
#X connect 73 0 29 0;
#X connect 74 0 67 0;
#X restore 257 505 pd sample;
#X floatatom 80 342 5 0 0 0 - - -;
#X obj 80 369 s trans;
#X obj 148 370 s chunk;
#X floatatom 148 343 5 0 0 0 - - -;
#X floatatom 219 342 5 0 0 0 - - -;
#X obj 219 369 s percent;
#X text 173 530 this is where effects are added;
#X text 10 411 this modifies chunk size \, transposition and the percent.
;
#X obj 299 367 s length;
#X floatatom 299 338 5 0 0 0 - - -;
#X msg 219 315 100;
#X msg 299 311 900;
#X msg 80 314 0;
#X obj 373 29 inlet;
#X msg 628 345 \; bloop set \$1 \; phasebloop \$2 \;;
#X obj 226 280 bng 15 250 50 0 empty empty empty 0 -6 0 8 -262144 -1
-1;
#X connect 0 0 3 0;
#X connect 1 0 3 0;
#X connect 2 0 4 0;
#X connect 3 0 30 0;
#X connect 4 0 3 0;
#X connect 4 1 3 1;
#X connect 5 0 3 0;
#X connect 6 0 3 0;
#X connect 7 0 3 0;
#X connect 8 0 3 0;
#X connect 9 0 3 0;
#X connect 10 0 3 0;
#X connect 11 0 3 0;
#X connect 12 0 0 0;
#X connect 12 0 31 0;
#X connect 12 1 1 0;
#X connect 12 1 31 0;
#X connect 12 2 5 0;
#X connect 12 2 31 0;
#X connect 12 3 6 0;
#X connect 12 3 31 0;
#X connect 12 4 7 0;
#X connect 12 4 31 0;
#X connect 12 5 8 0;
#X connect 12 5 31 0;
#X connect 12 6 9 0;
#X connect 12 6 31 0;
#X connect 12 7 10 0;
#X connect 12 7 31 0;
#X connect 12 8 11 0;
#X connect 12 8 31 0;
#X connect 14 0 2 0;
#X connect 16 0 17 0;
#X connect 19 0 18 0;
#X connect 20 0 21 0;
#X connect 25 0 24 0;
#X connect 26 0 20 0;
#X connect 27 0 25 0;
#X connect 28 0 16 0;
#X connect 29 0 12 0;
#X connect 31 0 26 0;
#X restore 19 391 pd beats;
#N canvas 0 0 1081 647 synths 0;
#X obj 729 243 hsl 128 15 0.5 1 0 0 empty empty empty -2 -6 0 8 -262144
-1 -1 0 1;
#X msg 627 344 \; sloop set \$1 \; phaseloop \$2 \;;
#X obj 627 311 pack s f;
#X obj 726 264 t b f;
#X obj 373 67 route 0 1 2 3 4 5 6 7;
#X text 731 219 This adjusts the sample rate;
#X msg 726 191 1;
#N canvas 728 207 873 663 sample 0;
#X obj 21 363 r sloop;
#X obj 4 129 r phaseloop;
#X obj 105 542 hip~ 5;
#X floatatom 107 60 4 0 100 0 - - -;
#X obj 106 489 *~;
#X floatatom 106 136 0 0 200 0 - - -;
#X obj 106 391 +~;
#X obj 105 343 samphold~;
#X obj 106 367 *~;
#X obj 271 398 r~ phase;
#X obj 456 223 s~ phase;
#X obj 193 344 r~ phase;
#X obj 141 368 r~ phase;
#X obj 107 103 s chunk-size;
#X floatatom 456 55 0 0 0 0 - - -;
#X text 223 95 chunk size;
#X text 220 109 in seconds;
#X obj 468 92 r chunk-size;
#X obj 468 117 t b f;
#X obj 271 422 -~ 0.5;
#X obj 271 446 *~ 0.5;
#X obj 271 469 cos~;
#X obj 456 197 phasor~;
#X obj 106 276 s~ read-pt;
#X obj 144 391 r~ read-pt;
#X obj 543 216 +~ 0.5;
#X obj 544 242 wrap~;
#X obj 544 267 s~ phase2;
#X obj 105 518 +~;
#X text 490 56 <-- transposition \, halftones/10;
#X obj 107 80 * 0.001;
#X obj 106 228 phasor~;
#X obj 106 415 *~ 44100;
#X obj 105 318 r chunk-size;
#X obj 105 441 +~ 1;
#X floatatom 464 174 5 0 0 0 - - -;
#X obj 114 182 s precession;
#X obj 581 116 t b f;
#X obj 581 91 r precession;
#X obj 106 159 * 0.01;
#X obj 357 498 *~;
#X obj 357 400 +~;
#X obj 356 352 samphold~;
#X obj 357 376 *~;
#X obj 522 431 -~ 0.5;
#X obj 522 455 *~ 0.5;
#X obj 522 478 cos~;
#X obj 395 400 r~ read-pt;
#X obj 357 424 *~ 44100;
#X obj 356 327 r chunk-size;
#X obj 356 450 +~ 1;
#X obj 444 353 r~ phase2;
#X obj 392 377 r~ phase2;
#X obj 522 407 r~ phase2;
#X text 136 136 <-- precession \, percent;
#X obj 107 16 loadbang;
#X text 257 16 TIME COMPRESSION/EXPANSION BY LOOPED SAMPLING;
#X msg 107 38 25;
#X floatatom 238 205 4 0 0 0 - - -;
#X obj 238 225 * 0.001;
#X msg 238 183 900;
#X text 147 60 <-- chunk size (msec);
#X obj 456 149 expr (pow(2 \, $f1/120)-$f3)/$f2;
#X obj 238 250 t b f;
#X obj 238 159 loadbang;
#X text 281 201 <-- loop length;
#X text 322 216 (msec);
#X obj 106 252 *~;
#X obj 106 204 /;
#X obj 106 465 tabread4~;
#X obj 357 474 tabread4~;
#X obj 641 20 r trans;
#X obj 646 341 r chunk;
#X obj 11 47 r percent;
#X obj 284 322 r length;
#X obj 187 606 dac~;
#X connect 0 0 69 0;
#X connect 1 0 31 0;
#X connect 2 0 75 0;
#X connect 2 0 75 1;
#X connect 3 0 30 0;
#X connect 4 0 28 0;
#X connect 5 0 39 0;
#X connect 6 0 32 0;
#X connect 7 0 8 0;
#X connect 8 0 6 0;
#X connect 9 0 19 0;
#X connect 11 0 7 1;
#X connect 12 0 8 1;
#X connect 14 0 62 0;
#X connect 17 0 18 0;
#X connect 18 0 62 0;
#X connect 18 1 62 1;
#X connect 19 0 20 0;
#X connect 20 0 21 0;
#X connect 21 0 4 1;
#X connect 22 0 10 0;
#X connect 22 0 25 0;
#X connect 24 0 6 1;
#X connect 25 0 26 0;
#X connect 26 0 27 0;
#X connect 28 0 2 0;
#X connect 30 0 13 0;
#X connect 31 0 67 0;
#X connect 32 0 34 0;
#X connect 33 0 7 0;
#X connect 34 0 69 0;
#X connect 37 0 62 0;
#X connect 37 1 62 2;
#X connect 38 0 37 0;
#X connect 39 0 36 0;
#X connect 39 0 68 0;
#X connect 40 0 28 1;
#X connect 41 0 48 0;
#X connect 42 0 43 0;
#X connect 43 0 41 0;
#X connect 44 0 45 0;
#X connect 45 0 46 0;
#X connect 46 0 40 1;
#X connect 47 0 41 1;
#X connect 48 0 50 0;
#X connect 49 0 42 0;
#X connect 50 0 70 0;
#X connect 51 0 42 1;
#X connect 52 0 43 1;
#X connect 53 0 44 0;
#X connect 55 0 57 0;
#X connect 57 0 3 0;
#X connect 58 0 59 0;
#X connect 59 0 63 0;
#X connect 59 0 67 1;
#X connect 60 0 58 0;
#X connect 62 0 22 0;
#X connect 62 0 35 0;
#X connect 63 0 68 0;
#X connect 63 1 68 1;
#X connect 64 0 60 0;
#X connect 67 0 23 0;
#X connect 68 0 31 0;
#X connect 69 0 4 0;
#X connect 70 0 40 0;
#X connect 71 0 14 0;
#X connect 72 0 3 0;
#X connect 73 0 5 0;
#X connect 74 0 58 0;
#X restore 257 505 pd sample;
#X floatatom 80 342 5 0 0 0 - - -;
#X obj 80 369 s trans;
#X obj 177 343 s chunk;
#X floatatom 177 316 5 0 0 0 - - -;
#X floatatom 272 339 5 0 0 0 - - -;
#X obj 272 366 s percent;
#X text 173 530 this is where effects are added;
#X text 10 411 this modifies chunk size \, transposition and the percent.
;
#X obj 446 372 s length;
#X floatatom 446 343 5 0 0 0 - - -;
#X msg 285 303 100;
#X msg 388 304 900;
#X msg 59 272 0;
#X obj 373 29 inlet;
#X msg 20 167 symbol s1;
#X msg 102 167 symbol s2;
#X msg 183 167 symbol s3;
#X msg 265 168 symbol s4;
#X msg 344 168 symbol s5;
#X msg 426 168 symbol s6;
#X msg 507 168 symbol s7;
#X msg 589 168 symbol s8;
#X msg 670 168 symbol s9;
#X connect 0 0 3 0;
#X connect 2 0 1 0;
#X connect 3 0 2 0;
#X connect 3 1 2 1;
#X connect 4 0 22 0;
#X connect 4 1 23 0;
#X connect 4 2 24 0;
#X connect 4 3 25 0;
#X connect 4 4 26 0;
#X connect 4 5 27 0;
#X connect 4 6 28 0;
#X connect 4 7 29 0;
#X connect 4 8 30 0;
#X connect 6 0 0 0;
#X connect 8 0 9 0;
#X connect 11 0 10 0;
#X connect 12 0 13 0;
#X connect 17 0 16 0;
#X connect 18 0 12 0;
#X connect 19 0 17 0;
#X connect 20 0 8 0;
#X connect 21 0 4 0;
#X connect 22 0 2 0;
#X connect 23 0 2 0;
#X connect 24 0 2 0;
#X connect 25 0 2 0;
#X connect 26 0 2 0;
#X connect 27 0 2 0;
#X connect 28 0 2 0;
#X connect 29 0 2 0;
#X connect 30 0 2 0;
#X restore 206 391 pd synths;
#N canvas 0 0 1065 610 vocals 0;
#X obj 729 243 hsl 128 15 0.5 1 0 0 empty empty empty -2 -6 0 8 -262144
-1 -1 0 1;
#X obj 627 311 pack s f;
#X obj 726 264 t b f;
#X obj 373 67 route 0 1 2 3 4 5 6 7;
#X text 731 219 This adjusts the sample rate;
#X msg 726 191 1;
#N canvas 728 245 877 629 sample 0;
#X obj 41 538 hip~ 5;
#X floatatom 107 60 4 0 100 0 - - -;
#X obj 106 489 *~;
#X floatatom 106 136 0 0 200 0 - - -;
#X obj 106 391 +~;
#X obj 105 343 samphold~;
#X obj 106 367 *~;
#X obj 271 398 r~ phase;
#X obj 456 223 s~ phase;
#X obj 193 344 r~ phase;
#X obj 141 368 r~ phase;
#X obj 107 103 s chunk-size;
#X floatatom 456 55 0 0 0 0 - - -;
#X text 223 95 chunk size;
#X text 220 109 in seconds;
#X obj 468 92 r chunk-size;
#X obj 468 117 t b f;
#X obj 271 422 -~ 0.5;
#X obj 271 446 *~ 0.5;
#X obj 271 469 cos~;
#X obj 456 197 phasor~;
#X obj 106 276 s~ read-pt;
#X obj 144 391 r~ read-pt;
#X obj 543 216 +~ 0.5;
#X obj 544 242 wrap~;
#X obj 544 267 s~ phase2;
#X obj 105 518 +~;
#X text 490 56 <-- transposition \, halftones/10;
#X obj 107 80 * 0.001;
#X obj 106 228 phasor~;
#X obj 106 415 *~ 44100;
#X obj 105 318 r chunk-size;
#X obj 105 441 +~ 1;
#X floatatom 464 174 5 0 0 0 - - -;
#X obj 114 182 s precession;
#X obj 581 116 t b f;
#X obj 581 91 r precession;
#X obj 106 159 * 0.01;
#X obj 357 498 *~;
#X obj 357 400 +~;
#X obj 356 352 samphold~;
#X obj 357 376 *~;
#X obj 522 431 -~ 0.5;
#X obj 522 455 *~ 0.5;
#X obj 522 478 cos~;
#X obj 395 400 r~ read-pt;
#X obj 357 424 *~ 44100;
#X obj 356 327 r chunk-size;
#X obj 356 450 +~ 1;
#X obj 444 353 r~ phase2;
#X obj 392 377 r~ phase2;
#X obj 522 407 r~ phase2;
#X text 136 136 <-- precession \, percent;
#X obj 107 16 loadbang;
#X text 257 16 TIME COMPRESSION/EXPANSION BY LOOPED SAMPLING;
#X msg 107 38 25;
#X floatatom 238 205 4 0 0 0 - - -;
#X obj 238 225 * 0.001;
#X msg 238 183 900;
#X text 147 60 <-- chunk size (msec);
#X obj 456 149 expr (pow(2 \, $f1/120)-$f3)/$f2;
#X obj 238 250 t b f;
#X obj 238 159 loadbang;
#X text 281 201 <-- loop length;
#X text 322 216 (msec);
#X obj 106 252 *~;
#X obj 106 204 /;
#X obj 106 465 tabread4~;
#X obj 357 474 tabread4~;
#X obj 641 20 r trans;
#X obj 646 341 r chunk;
#X obj 11 47 r percent;
#X obj 284 322 r length;
#X obj 4 129 r phasevloop;
#X obj 21 363 r vloop;
#X text 404 542 <-- output amplitude;
#X obj 203 580 dac~;
#X connect 0 0 76 0;
#X connect 0 0 76 1;
#X connect 1 0 28 0;
#X connect 2 0 26 0;
#X connect 3 0 37 0;
#X connect 4 0 30 0;
#X connect 5 0 6 0;
#X connect 6 0 4 0;
#X connect 7 0 17 0;
#X connect 9 0 5 1;
#X connect 10 0 6 1;
#X connect 12 0 60 0;
#X connect 15 0 16 0;
#X connect 16 0 60 0;
#X connect 16 1 60 1;
#X connect 17 0 18 0;
#X connect 18 0 19 0;
#X connect 19 0 2 1;
#X connect 20 0 8 0;
#X connect 20 0 23 0;
#X connect 22 0 4 1;
#X connect 23 0 24 0;
#X connect 24 0 25 0;
#X connect 26 0 0 0;
#X connect 28 0 11 0;
#X connect 29 0 65 0;
#X connect 30 0 32 0;
#X connect 31 0 5 0;
#X connect 32 0 67 0;
#X connect 35 0 60 0;
#X connect 35 1 60 2;
#X connect 36 0 35 0;
#X connect 37 0 34 0;
#X connect 37 0 66 0;
#X connect 38 0 26 1;
#X connect 39 0 46 0;
#X connect 40 0 41 0;
#X connect 41 0 39 0;
#X connect 42 0 43 0;
#X connect 43 0 44 0;
#X connect 44 0 38 1;
#X connect 45 0 39 1;
#X connect 46 0 48 0;
#X connect 47 0 40 0;
#X connect 48 0 68 0;
#X connect 49 0 40 1;
#X connect 50 0 41 1;
#X connect 51 0 42 0;
#X connect 53 0 55 0;
#X connect 55 0 1 0;
#X connect 56 0 57 0;
#X connect 57 0 61 0;
#X connect 57 0 65 1;
#X connect 58 0 56 0;
#X connect 60 0 20 0;
#X connect 60 0 33 0;
#X connect 61 0 66 0;
#X connect 61 1 66 1;
#X connect 62 0 58 0;
#X connect 65 0 21 0;
#X connect 66 0 29 0;
#X connect 67 0 2 0;
#X connect 68 0 38 0;
#X connect 69 0 12 0;
#X connect 70 0 1 0;
#X connect 71 0 3 0;
#X connect 72 0 56 0;
#X connect 73 0 29 0;
#X connect 74 0 67 0;
#X restore 257 505 pd sample;
#X floatatom 80 342 5 0 0 0 - - -;
#X obj 80 369 s trans;
#X obj 177 343 s chunk;
#X floatatom 177 316 5 0 0 0 - - -;
#X floatatom 272 339 5 0 0 0 - - -;
#X obj 272 366 s percent;
#X text 173 530 this is where effects are added;
#X text 10 411 this modifies chunk size \, transposition and the percent.
;
#X obj 446 372 s length;
#X floatatom 446 343 5 0 0 0 - - -;
#X msg 285 303 100;
#X msg 388 304 900;
#X msg 59 272 0;
#X obj 373 29 inlet;
#X msg 20 167 symbol v1;
#X msg 103 167 symbol v2;
#X msg 183 167 symbol v3;
#X msg 265 168 symbol v4;
#X msg 344 168 symbol v5;
#X msg 425 168 symbol v6;
#X msg 507 168 symbol v7;
#X msg 589 168 symbol v8;
#X msg 670 168 symbol v9;
#X msg 627 345 \; vloop set \$1 \; phasevloop \$2 \;;
#X connect 0 0 2 0;
#X connect 1 0 30 0;
#X connect 2 0 1 0;
#X connect 2 1 1 1;
#X connect 3 0 21 0;
#X connect 3 1 22 0;
#X connect 3 2 23 0;
#X connect 3 3 24 0;
#X connect 3 4 25 0;
#X connect 3 5 26 0;
#X connect 3 6 27 0;
#X connect 3 7 28 0;
#X connect 3 8 29 0;
#X connect 5 0 0 0;
#X connect 7 0 8 0;
#X connect 10 0 9 0;
#X connect 11 0 12 0;
#X connect 16 0 15 0;
#X connect 17 0 11 0;
#X connect 18 0 16 0;
#X connect 19 0 7 0;
#X connect 20 0 3 0;
#X connect 21 0 1 0;
#X connect 22 0 1 0;
#X connect 23 0 1 0;
#X connect 24 0 1 0;
#X connect 25 0 1 0;
#X connect 26 0 1 0;
#X connect 27 0 1 0;
#X connect 28 0 1 0;
#X connect 29 0 1 0;
#X restore 397 392 pd vocals;
#X obj 780 7 tgl 15 0 empty empty empty 0 -6 0 8 -262144 -1 -1 0 1
;
#X msg 780 27 \; pd-soundBox vis \$1;
#N canvas 160 584 1252 377 soundBox 0;
#X msg 5 27 symbol w1;
#X msg 5 53 symbol w2;
#X msg 5 77 symbol w3;
#X msg 5 103 symbol w4;
#X msg 5 128 symbol w5;
#X msg 5 154 symbol w6;
#X msg 5 178 symbol w7;
#X msg 7 203 symbol w8;
#X msg 7 233 symbol w9;
#N canvas 0 0 494 344 loaBbox 0;
#X obj 166 245 soundfiler;
#X obj 149 131 openpanel;
#X obj 149 107 t b;
#X obj 166 196 pack 0 s s;
#X obj 149 153 t b s;
#X msg 166 219 read -resize \$2 \$3;
#X obj 221 58 symbol;
#X msg 221 90 symbol \$1;
#X obj 221 31 inlet;
#X obj 166 275 print;
#X connect 0 0 9 0;
#X connect 1 0 4 0;
#X connect 2 0 1 0;
#X connect 3 0 5 0;
#X connect 4 0 3 0;
#X connect 4 1 3 1;
#X connect 5 0 0 0;
#X connect 6 0 7 0;
#X connect 7 0 2 0;
#X connect 7 0 3 2;
#X connect 8 0 6 0;
#X restore 119 277 pd loaBbox;
#X obj 353 15 r sd1;
#X obj 432 13 r sd2;
#X obj 511 13 r sd3;
#X obj 590 14 r sd4;
#X obj 670 15 r sd5;
#X obj 748 16 r sd6;
#X obj 827 16 r sd7;
#X obj 905 16 r sd8;
#X obj 985 16 r sd9;
#N canvas 789 43 436 240 smpBox 0;
#X obj 20 44 inlet;
#N canvas 0 0 450 300 (subpatch) 0;
#X array w1 325659 float 2;
#X coords 0 1 325658 -1 125 75 1;
#X restore 144 32 graph;
#X obj 20 81 tabread~ w1;
#X connect 0 0 2 0;
#X restore 353 46 pd smpBox;
#N canvas 28 11 467 412 smpBox 0;
#N canvas 0 0 450 300 (subpatch) 0;
#X array w2 302400 float 2;
#X coords 0 1 302399 -1 125 75 1;
#X restore 179 132 graph;
#X obj 74 111 inlet;
#X obj 74 186 tabread~ w2;
#X connect 1 0 2 0;
#X restore 432 47 pd smpBox;
#N canvas 443 514 451 396 smpBox 0;
#X obj 73 121 inlet;
#N canvas 0 0 450 300 (subpatch) 0;
#X array w3 302400 float 2;
#X coords 0 1 302399 -1 125 75 1;
#X restore 186 143 graph;
#X obj 73 196 tabread~ w3;
#X connect 0 0 2 0;
#X restore 511 47 pd smpBox;
#N canvas 28 11 443 388 smpBox 0;
#N canvas 0 0 450 300 (subpatch) 0;
#X array w4 302400 float 2;
#X coords 0 1 302399 -1 125 75 1;
#X restore 179 132 graph;
#X obj 85 57 inlet;
#X obj 85 132 tabread~ w4;
#X connect 1 0 2 0;
#X restore 590 48 pd smpBox;
#N canvas 28 11 439 384 smpBox 0;
#N canvas 0 0 450 300 (subpatch) 0;
#X array w5 151200 float 2;
#X coords 0 1 151199 -1 125 75 1;
#X restore 179 132 graph;
#X obj 65 109 inlet;
#X obj 65 184 tabread~ w5;
#X connect 1 0 2 0;
#X restore 670 48 pd smpBox;
#N canvas 28 11 411 356 smpBox 0;
#N canvas 0 0 450 300 (subpatch) 0;
#X array w6 302400 float 2;
#X coords 0 1 302399 -1 125 75 1;
#X restore 179 132 graph;
#X obj 70 107 inlet;
#X obj 70 182 tabread~ w6;
#X connect 1 0 2 0;
#X restore 748 48 pd smpBox;
#N canvas 28 11 411 356 smpBox 0;
#N canvas 0 0 450 300 (subpatch) 0;
#X array w7 302400 float 2;
#X coords 0 1 302399 -1 125 75 1;
#X restore 179 132 graph;
#X obj 80 108 inlet;
#X obj 80 183 tabread~ w7;
#X connect 1 0 2 0;
#X restore 827 47 pd smpBox;
#N canvas 28 11 407 352 smpBox 0;
#N canvas 0 0 450 300 (subpatch) 0;
#X array w8 162839 float 2;
#X coords 0 1 162838 -1 125 75 1;
#X restore 179 132 graph;
#X obj 72 106 inlet;
#X obj 72 181 tabread~ w8;
#X connect 1 0 2 0;
#X restore 905 48 pd smpBox;
#X obj 352 98 r sd1;
#X obj 431 96 r sd2;
#X obj 510 96 r sd3;
#X obj 589 97 r sd4;
#X obj 669 98 r sd5;
#X obj 747 99 r sd6;
#X obj 826 99 r sd7;
#X obj 904 99 r sd8;
#X obj 984 99 r sd9;
#N canvas 789 43 456 260 smpBox 0;
#X obj 20 44 inlet;
#N canvas 0 0 450 300 (subpatch) 0;
#X array s1 47081 float 2;
#X coords 0 1 47080 -1 125 75 1;
#X restore 144 32 graph;
#X obj 20 81 tabread~ s1;
#X connect 0 0 2 0;
#X restore 352 129 pd smpBox;
#N canvas 28 11 479 424 smpBox 0;
#N canvas 0 0 450 300 (subpatch) 0;
#X array s2 151206 float 2;
#X coords 0 1 151205 -1 125 75 1;
#X restore 179 132 graph;
#X obj 74 111 inlet;
#X obj 73 186 tabread~ s2;
#X connect 1 0 2 0;
#X restore 431 130 pd smpBox;
#N canvas 443 514 463 408 smpBox 0;
#X obj 73 121 inlet;
#N canvas 0 0 450 300 (subpatch) 0;
#X array s3 161296 float 2;
#X coords 0 1 161295 -1 125 75 1;
#X restore 186 143 graph;
#X obj 73 196 tabread~ s3;
#X connect 0 0 2 0;
#X restore 510 130 pd smpBox;
#N canvas 28 11 451 396 smpBox 0;
#N canvas 0 0 450 300 (subpatch) 0;
#X array s4 61572 float 2;
#X coords 0 1 61571 -1 125 75 1;
#X restore 179 132 graph;
#X obj 85 57 inlet;
#X obj 85 132 tabread~ s4;
#X connect 1 0 2 0;
#X restore 589 131 pd smpBox;
#N canvas 28 11 447 392 smpBox 0;
#N canvas 0 0 450 300 (subpatch) 0;
#X array s5 146942 float 2;
#X coords 0 1 146941 -1 125 75 1;
#X restore 179 132 graph;
#X obj 65 109 inlet;
#X obj 65 184 tabread~ s5;
#X connect 1 0 2 0;
#X restore 669 131 pd smpBox;
#N canvas 28 11 415 360 smpBox 0;
#N canvas 0 0 450 300 (subpatch) 0;
#X array s6 130327 float 2;
#X coords 0 1 130326 -1 125 75 1;
#X restore 179 132 graph;
#X obj 70 107 inlet;
#X obj 70 182 tabread~ s6;
#X connect 1 0 2 0;
#X restore 747 131 pd smpBox;
#N canvas 28 11 415 360 smpBox 0;
#N canvas 0 0 450 300 (subpatch) 0;
#X array s7 151206 float 2;
#X coords 0 1 151205 -1 125 75 1;
#X restore 179 132 graph;
#X obj 80 108 inlet;
#X obj 80 183 tabread~ s7;
#X connect 1 0 2 0;
#X restore 826 130 pd smpBox;
#N canvas 28 11 411 356 smpBox 0;
#N canvas 0 0 450 300 (subpatch) 0;
#X array s8 130327 float 2;
#X coords 0 1 130326 -1 125 75 1;
#X restore 179 132 graph;
#X obj 72 106 inlet;
#X obj 72 181 tabread~ s8;
#X connect 1 0 2 0;
#X restore 904 131 pd smpBox;
#N canvas 28 11 415 360 smpBox 0;
#N canvas 0 0 450 300 (subpatch) 0;
#X array s9 171824 float 2;
#X coords 0 1 171823 -1 125 75 1;
#X restore 179 132 graph;
#X obj 60 111 inlet;
#X obj 59 186 tabread~ s9;
#X connect 1 0 2 0;
#X restore 984 131 pd smpBox;
#X obj 348 210 r sd1;
#X obj 427 208 r sd2;
#X obj 506 208 r sd3;
#X obj 585 209 r sd4;
#X obj 665 210 r sd5;
#X obj 743 211 r sd6;
#X obj 822 211 r sd7;
#X obj 900 211 r sd8;
#X obj 980 211 r sd9;
#N canvas 789 43 436 240 smpBox 0;
#X obj 20 44 inlet;
#N canvas 0 0 454 304 (subpatch) 0;
#X array v1 30656 float 2;
#X coords 0 1 30655 -1 125 75 1;
#X restore 144 32 graph;
#X obj 18 81 tabread~ v1;
#X connect 0 0 2 0;
#X restore 348 241 pd smpBox;
#N canvas 28 11 471 416 smpBox 0;
#N canvas 0 0 450 300 (subpatch) 0;
#X array v2 55272 float 2;
#X coords 0 1 55271 -1 125 75 1;
#X restore 179 132 graph;
#X obj 74 111 inlet;
#X obj 74 185 tabread~ v2;
#X connect 1 0 2 0;
#X restore 427 242 pd smpBox;
#N canvas 443 514 455 400 smpBox 0;
#X obj 73 121 inlet;
#N canvas 0 0 450 300 (subpatch) 0;
#X array v3 26601 float 2;
#X coords 0 1 26600 -1 125 75 1;
#X restore 186 143 graph;
#X obj 73 196 tabread~ v3;
#X connect 0 0 2 0;
#X restore 506 242 pd smpBox;
#N canvas 28 11 447 392 smpBox 0;
#N canvas 0 0 450 300 (subpatch) 0;
#X array v4 69606 float 2;
#X coords 0 1 69605 -1 125 75 1;
#X restore 179 132 graph;
#X obj 85 57 inlet;
#X obj 85 132 tabread~ v4;
#X connect 1 0 2 0;
#X restore 585 243 pd smpBox;
#N canvas 28 11 443 388 smpBox 0;
#N canvas 0 0 450 300 (subpatch) 0;
#X array v5 53045 float 2;
#X coords 0 1 53044 -1 125 75 1;
#X restore 179 132 graph;
#X obj 65 109 inlet;
#X obj 65 184 tabread~ v5;
#X connect 1 0 2 0;
#X restore 665 243 pd smpBox;
#N canvas 28 11 415 360 smpBox 0;
#N canvas 0 0 450 300 (subpatch) 0;
#X array v6 55040 float 2;
#X coords 0 1 55039 -1 125 75 1;
#X restore 179 132 graph;
#X obj 70 107 inlet;
#X obj 70 182 tabread~ v6;
#X connect 1 0 2 0;
#X restore 743 243 pd smpBox;
#N canvas 28 11 415 360 smpBox 0;
#N canvas 0 0 450 300 (subpatch) 0;
#X array v7 30560 float 2;
#X coords 0 1 30559 -1 125 75 1;
#X restore 179 132 graph;
#X obj 80 108 inlet;
#X obj 80 183 tabread~ v7;
#X connect 1 0 2 0;
#X restore 822 242 pd smpBox;
#N canvas 28 11 411 356 smpBox 0;
#N canvas 0 0 450 300 (subpatch) 0;
#X array v8 18912 float 2;
#X coords 0 1 18911 -1 125 75 1;
#X restore 179 132 graph;
#X obj 72 106 inlet;
#X obj 72 181 tabread~ v8;
#X connect 1 0 2 0;
#X restore 900 243 pd smpBox;
#N canvas 28 11 415 360 smpBox 0;
#N canvas 0 0 454 304 (subpatch) 0;
#X array v9 61412 float 2;
#X coords 0 1 61411 -1 125 75 1;
#X restore 179 132 graph;
#X obj 60 111 inlet;
#X obj 60 186 tabread~ v9;
#X connect 1 0 2 0;
#X restore 980 243 pd smpBox;
#X text 1116 29 beats;
#X text 1118 125 synths;
#X text 1121 241 vocals;
#X text 22 2 beats;
#X text 121 2 synths;
#X text 246 4 vocals;
#X msg 106 27 symbol s1;
#X msg 106 53 symbol s2;
#X msg 106 77 symbol s3;
#X msg 106 103 symbol s4;
#X msg 106 128 symbol s5;
#X msg 106 154 symbol s6;
#X msg 106 178 symbol s7;
#X msg 108 203 symbol s8;
#X msg 108 233 symbol s9;
#X msg 231 29 symbol v1;
#X msg 233 56 symbol v2;
#X msg 233 80 symbol v3;
#X msg 233 106 symbol v4;
#X msg 233 131 symbol v5;
#X msg 232 157 symbol v6;
#X msg 233 181 symbol v7;
#X msg 235 206 symbol v8;
#X msg 235 236 symbol v9;
#N canvas 28 11 415 360 smpBox 0;
#N canvas 0 0 450 300 (subpatch) 0;
#X array w9 4e+006 float 2;
#X coords 0 1 4e+006 -1 125 75 1;
#X restore 179 132 graph;
#X obj 60 111 inlet;
#X obj 60 186 tabread~ w9;
#X connect 1 0 2 0;
#X restore 985 46 pd smpBox;
#X text 176 181 comment;
#X connect 0 0 9 0;
#X connect 1 0 9 0;
#X connect 2 0 9 0;
#X connect 3 0 9 0;
#X connect 4 0 9 0;
#X connect 5 0 9 0;
#X connect 6 0 9 0;
#X connect 7 0 9 0;
#X connect 8 0 9 0;
#X connect 10 0 19 0;
#X connect 11 0 20 0;
#X connect 12 0 21 0;
#X connect 13 0 22 0;
#X connect 14 0 23 0;
#X connect 15 0 24 0;
#X connect 16 0 25 0;
#X connect 17 0 26 0;
#X connect 18 0 87 0;
#X connect 27 0 36 0;
#X connect 28 0 37 0;
#X connect 29 0 38 0;
#X connect 30 0 39 0;
#X connect 31 0 40 0;
#X connect 32 0 41 0;
#X connect 33 0 42 0;
#X connect 34 0 43 0;
#X connect 35 0 44 0;
#X connect 45 0 54 0;
#X connect 46 0 55 0;
#X connect 47 0 56 0;
#X connect 48 0 57 0;
#X connect 49 0 58 0;
#X connect 50 0 59 0;
#X connect 51 0 60 0;
#X connect 52 0 61 0;
#X connect 53 0 62 0;
#X connect 69 0 9 0;
#X connect 70 0 9 0;
#X connect 71 0 9 0;
#X connect 72 0 9 0;
#X connect 73 0 9 0;
#X connect 74 0 9 0;
#X connect 75 0 9 0;
#X connect 76 0 9 0;
#X connect 77 0 9 0;
#X connect 78 0 9 0;
#X connect 79 0 9 0;
#X connect 80 0 9 0;
#X connect 81 0 9 0;
#X connect 82 0 9 0;
#X connect 83 0 9 0;
#X connect 84 0 9 0;
#X connect 85 0 9 0;
#X connect 86 0 9 0;
#X restore 838 5 pd soundBox;
#X text 779 31 comment;
#X floatatom 403 297 5 0 0 0 - trans-slide -;
#X obj 403 267 s trans;
#X obj 468 266 s chunk;
#X floatatom 468 239 5 0 0 0 - chunk-slide -;
#X obj 536 265 s percent;
#X obj 614 264 s length;
#X floatatom 616 296 5 1 114 0 - length-slide -;
#X msg 536 240 100;
#X msg 614 233 900;
#X msg 649 233 450;
#X msg 683 233 225;
#X msg 719 232 115;
#X obj 616 200 route 0 1 2;
#X obj 616 179 hradio 15 1 0 4 empty empty empty 0 -6 0 8 -262144 -1
-1 0;
#X msg 451 210 1;
#N canvas 54 28 710 802 nunButtonReceive 0;
#X obj 205 115 r c;
#X obj 344 117 r z;
#X obj 421 481 outlet newValue;
#X obj 384 193 loadbang;
#X msg 384 287 0;
#X obj 325 335 pack f f;
#X msg 205 237 0;
#X msg 325 236 1;
#X obj 325 371 route 0 1;
#X obj 216 433 - 1;
#X obj 358 428 + 1;
#X obj 216 470 sel -1;
#X msg 358 495 0;
#X obj 358 610 s \$0-newValue;
#X obj 421 286 r \$0-newValue;
#X text 27 346 use the route to decide wether to add or substract;
#X text 478 609 send above in order to avoid ugly cables :);
#X msg 216 496 3;
#X obj 358 466 sel 4;
#X connect 0 0 6 0;
#X connect 1 0 7 0;
#X connect 3 0 4 0;
#X connect 4 0 5 1;
#X connect 4 0 2 0;
#X connect 5 0 8 0;
#X connect 6 0 5 0;
#X connect 7 0 5 0;
#X connect 8 0 9 0;
#X connect 8 1 10 0;
#X connect 9 0 11 0;
#X connect 10 0 18 0;
#X connect 11 0 17 0;
#X connect 11 1 13 0;
#X connect 12 0 13 0;
#X connect 14 0 5 1;
#X connect 14 0 2 0;
#X connect 17 0 13 0;
#X connect 18 0 12 0;
#X connect 18 1 13 0;
#X restore 616 153 pd nunButtonReceive;
#X obj 646 32 s c;
#X obj 679 32 s z;
#X obj 646 11 bng 15 250 50 0 empty empty empty 0 -6 0 8 -262144 -1
-1;
#X obj 679 12 bng 15 250 50 0 empty empty empty 0 -6 0 8 -262144 -1
-1;
#X text 268 172 comment;
#X text 238 218 comment;
#X text 305 264 comment;
#X msg 403 129 bang;
#X text 716 134 Z and C;
#X msg 533 126 bang;
#X text 447 130 A button;
#X text 574 125 B button;
#X text 869 103 n_Roll;
#X text 454 140 comment;
#X text 659 298 try connecting to n_pitch;
#X msg 403 212 0;
#X obj 601 333 loadbang;
#X msg 601 357 \; trans 0 \; chunk 0 \; percent 100 \; length 900;
#X text 726 276 comment;
#X obj 432 98 print;
#X obj 789 244 hsl 127 15 -127 127 0 0 empty empty empty -2 -6 0 8
-24198 -1 -1 0 1;
#X obj 789 121 hsl 127 15 0 100 0 0 empty empty empty -2 -6 0 8 -262144
-1 -1 0 1;
#X obj 786 210 - 127;
#X floatatom 835 155 5 0 0 0 - - -;
#X floatatom 835 274 5 0 0 0 - - -;
#X obj 786 164 / 100;
#X obj 786 187 * 254;
#X text 930 239;
#X text 836 190;
#X text 925 118;
#X text 21 401;
#X connect 1 0 0 0;
#X connect 2 0 18 0;
#X connect 3 0 19 0;
#X connect 4 0 20 0;
#X connect 10 0 11 1;
#X connect 11 0 17 0;
#X connect 12 0 14 0;
#X connect 12 1 15 0;
#X connect 12 2 16 0;
#X connect 13 0 11 0;
#X connect 14 0 2 0;
#X connect 15 0 3 0;
#X connect 16 0 4 0;
#X connect 17 0 12 0;
#X connect 21 0 22 0;
#X connect 25 0 26 0;
#X connect 28 0 27 0;
#X connect 31 0 30 0;
#X connect 32 0 29 0;
#X connect 33 0 30 0;
#X connect 34 0 30 0;
#X connect 35 0 30 0;
#X connect 36 0 30 0;
#X connect 37 0 33 0;
#X connect 37 1 34 0;
#X connect 37 2 35 0;
#X connect 37 3 36 0;
#X connect 38 0 37 0;
#X connect 39 0 26 0;
#X connect 39 0 27 0;
#X connect 40 0 38 0;
#X connect 43 0 41 0;
#X connect 44 0 42 0;
#X connect 48 0 33 0;
#X connect 48 0 32 0;
#X connect 48 0 56 0;
#X connect 50 0 39 0;
#X connect 56 0 26 0;
#X connect 56 0 27 0;
#X connect 57 0 58 0;
#X connect 61 0 65 0;
#X connect 61 0 26 0;
#X connect 62 0 64 0;
#X connect 62 0 66 0;
#X connect 63 0 61 0;
#X connect 66 0 67 0;
#X connect 67 0 63 0;
